<svg xmlns="http://www.w3.org/2000/svg" viewBox="0 0 100 100" style="color:#FFFFFF">
<rect width="100" height="100" rx="22" fill="#2F5F4E"/>
<g transform="translate(14 14) scale(.72)">
<path d="M24 76 L10 94 L34 90 Z M76 76 L90 94 L66 90 Z" fill="currentColor"/>
<ellipse cx="50" cy="66" rx="30" ry="27" fill="currentColor"/>
<circle cx="50" cy="40" r="23" fill="currentColor"/>
<ellipse cx="23" cy="56" rx="7" ry="17" transform="rotate(35 23 56)" fill="currentColor" stroke="#2F5F4E" stroke-width="2.5"/>
<ellipse cx="77" cy="56" rx="7" ry="17" transform="rotate(-35 77 56)" fill="currentColor" stroke="#2F5F4E" stroke-width="2.5"/>
<g fill="none" stroke="#2F5F4E" stroke-width="5"><circle cx="39" cy="42" r="10"/><circle cx="61" cy="42" r="10"/></g>
<rect x="46" y="39" width="8" height="6" fill="#2F5F4E"/>
<circle cx="39" cy="42" r="3" fill="#2F5F4E"/><circle cx="61" cy="42" r="3" fill="#2F5F4E"/>
<path d="M45 57 L55 57 L50 65 Z" fill="#D9A400"/>
</g>
</svg>
